PathFileType	4	(X/Y/Z)	C:\Users\WrightLab\Desktop\Jo\P4V124.trc
DataRate	CameraRate	NumFrames	NumMarkers	Units	OrigDataRate	OrigDataStartFrame	OrigNumFrames
100.00	100.00	       7	19	mm	100.00	282	       562
Frame#	Time	Headset_Front			Headset_Back			Headset_Left			Headset_Right			Left_Shoulder			Right_Shoulder			Sternum			C7			Left Elbow			Right Elbow			Left Wrist			Right Wrist			Left ASIS			Right ASIS			S2			Left Knee			Right Knee			Left Ankle			Right Ankle			
		X1	Y1	Z1	X2	Y2	Z2	X3	Y3	Z3	X4	Y4	Z4	X5	Y5	Z5	X6	Y6	Z6	X7	Y7	Z7	X8	Y8	Z8	X9	Y9	Z9	X10	Y10	Z10	X11	Y11	Z11	X12	Y12	Z12	X13	Y13	Z13	X14	Y14	Z14	X15	Y15	Z15	X16	Y16	Z16	X17	Y17	Z17	X18	Y18	Z18	X19	Y19	Z19	

282	2.810	-1.67787	1691.11121	587.08893							-143.33615	1715.34839	537.12463	-2.01153	1532.73999	284.78366	-213.95882	1554.14441	499.42172	-24.04444	1478.70850	461.76901	-146.04868	1574.45483	352.33636	88.94938	1183.75647	176.95230	-318.12158	1217.35071	627.63171	192.11258	913.13702	301.82394	-215.54321	956.54169	747.31940	34.47964	1047.49805	337.83908	-174.61319	1044.12268	595.32849	-202.78400	1064.97559	333.25458	57.54290	560.58337	351.11063	-130.97609	582.39410	682.17426	-13.48040	65.29882	328.13077	-316.44098	237.35915	365.89938	
283	2.820	3.85360	1691.44690	594.67151							-137.96587	1715.91223	544.25769	5.71567	1535.54370	289.72653	-207.84093	1555.13672	505.37982	-17.92916	1479.49365	467.91623	-138.77109	1575.63208	358.71170	99.27384	1185.50732	185.65250	-314.02576	1218.29834	631.13220	206.46379	920.31433	319.29495	-212.49847	956.72998	750.79370	39.89941	1047.67603	342.93777	-167.46176	1046.92798	601.75220	-196.88411	1067.03186	340.16980	58.51241	560.43658	353.52228	-118.26274	587.19855	692.39459	-13.65619	65.22392	328.38885	-292.67328	228.37440	381.49539	
284	2.830	9.69397	1691.52258	602.26636							-132.30083	1716.42981	551.14880	13.61422	1535.67603	297.98196	-201.83682	1555.93677	511.17902	-11.40028	1480.56738	476.59641	-131.61261	1576.65588	365.13409	109.83833	1186.47046	193.47617	-311.27954	1219.02991	635.34277	220.92619	927.82587	336.52451	-209.31689	956.51361	754.85797	45.71752	1047.86438	348.63699	-160.43167	1047.84277	608.17792	-191.84071	1067.62048	346.77585	59.79051	560.29541	355.08368	-106.80050	591.99670	702.57465	-14.14443	65.45827	328.68713	-268.64682	219.41112	397.44647	
285	2.840	14.75253	1691.94592	610.02692							-126.65977	1716.84216	558.23328	21.30074	1536.95361	307.04446	-195.65814	1556.57312	517.12885	-4.65926	1481.53015	483.22849	-124.55782	1577.47620	371.67563	119.89478	1188.02869	202.66988	-307.51672	1219.96960	638.83618	235.98666	936.38647	353.04843	-208.24001	956.93170	758.39557	51.83725	1048.33606	353.76123	-154.32298	1049.72876	613.49054	-185.53787	1068.40466	353.23843	61.27426	560.47119	357.06528	-94.87730	596.34711	711.70703	-14.14443	65.45827	328.68713	-244.45842	209.42421	413.82297	
286	2.850	20.13874	1692.40698	617.61688							-120.46689	1716.65051	565.13940	28.21375	1537.01660	313.78522	-189.99397	1556.70264	523.27472	1.44407	1481.54443	490.55072	-117.49955	1577.96033	378.23096	129.62395	1189.02490	211.50352	-304.40302	1220.85730	641.72772	251.12193	945.98285	371.26962	-205.64061	956.26404	762.40747	57.86359	1048.58862	359.99182	-148.13034	1050.15955	619.99451	-180.16130	1069.34814	359.81927	62.95524	559.83728	358.69641	-84.32346	600.28638	721.34369	-14.45791	65.64375	328.88019	-220.04262	199.08105	432.43671	
287	2.860	25.57407	1691.94897	625.42706							-114.46908	1716.01501	572.20313	35.61451	1537.71594	321.50488	-184.20380	1556.94653	529.21521	7.10028	1482.33374	498.79630	-110.55682	1578.46179	384.79904	139.74261	1189.85791	220.46216	-300.90363	1220.29138	646.37628	265.74521	955.23511	388.63864	-203.94823	955.73407	766.94653	63.92234	1049.00085	366.27551	-141.71628	1051.41833	626.25702	-174.11098	1069.76086	366.85834	65.23201	559.89960	360.41519	-73.66225	602.91467	729.34320	-14.38475	65.89046	328.86774	-195.39191	189.14119	451.32852	
288	2.870	30.95922	1691.36450	633.29370							-109.54242	1715.73511	579.51935	43.23291	1538.34143	328.95319	-178.40967	1557.09070	535.56708	13.51781	1481.84131	506.52954	-103.78467	1578.67639	391.62848	149.10527	1190.85278	229.95557	-296.03000	1219.72021	649.94202	279.20474	964.31641	405.78580	-202.40533	955.35968	771.44678	71.08288	1049.25989	374.50003	-136.14211	1051.24756	631.60443	-167.89378	1070.18762	372.94894	66.77491	559.91656	362.26074	-64.11893	605.65002	737.82050	-14.56004	65.59415	329.69931	-170.62946	178.40057	470.84842	
